<svg width="24" height="24" viewBox="0 0 24 24" fill="none" xmlns="http://www.w3.org/2000/svg">
<g clip-path="url(#clip0_36_92)">
<path d="M20.7969 12.2C20.7969 13.839 20.3589 15.375 19.5929 16.7L20.0529 19.735C20.0767 19.8923 20.0584 20.0531 19.9999 20.201C19.9413 20.3489 19.8446 20.4787 19.7196 20.577C19.5946 20.6754 19.4458 20.7389 19.2883 20.761C19.1307 20.7832 18.9702 20.7632 18.8229 20.703L16.2969 19.995C14.5812 20.9856 12.5866 21.3824 10.6224 21.1238C8.65818 20.8653 6.83418 19.9659 5.43324 18.5651C4.0323 17.1643 3.13271 15.3404 2.87397 13.3762C2.61524 11.412 3.01182 9.41738 4.00222 7.70158C4.99261 5.98577 6.52148 4.64469 8.35171 3.88632C10.1819 3.12795 12.2113 2.99466 14.125 3.50713C16.0387 4.01961 17.7298 5.1492 18.9361 6.72073C20.1424 8.29226 20.7965 10.2189 20.7969 12.2Z" stroke="#141313" stroke-width="1.5" stroke-linecap="round" stroke-linejoin="round"/>
<path d="M8.86387 12.2C8.86387 12.0588 8.83606 11.919 8.78204 11.7886C8.72801 11.6582 8.64883 11.5397 8.54901 11.4399C8.44918 11.34 8.33068 11.2609 8.20025 11.2068C8.06983 11.1528 7.93004 11.125 7.78887 11.125C7.6477 11.125 7.50791 11.1528 7.37748 11.2068C7.24706 11.2609 7.12855 11.34 7.02873 11.4399C6.9289 11.5397 6.84972 11.6582 6.7957 11.7886C6.74167 11.919 6.71387 12.0588 6.71387 12.2C6.71387 12.4851 6.82713 12.7585 7.02873 12.9601C7.23033 13.1617 7.50376 13.275 7.78887 13.275C8.07397 13.275 8.34741 13.1617 8.54901 12.9601C8.75061 12.7585 8.86387 12.4851 8.86387 12.2ZM12.8639 12.2C12.8639 11.9149 12.7506 11.6415 12.549 11.4399C12.3474 11.2383 12.074 11.125 11.7889 11.125C11.5038 11.125 11.2303 11.2383 11.0287 11.4399C10.8271 11.6415 10.7139 11.9149 10.7139 12.2C10.7139 12.4851 10.8271 12.7585 11.0287 12.9601C11.2303 13.1617 11.5038 13.275 11.7889 13.275C12.074 13.275 12.3474 13.1617 12.549 12.9601C12.7506 12.7585 12.8639 12.4851 12.8639 12.2ZM16.8639 12.2C16.8639 11.9149 16.7506 11.6415 16.549 11.4399C16.3474 11.2383 16.074 11.125 15.7889 11.125C15.5038 11.125 15.2303 11.2383 15.0287 11.4399C14.8271 11.6415 14.7139 11.9149 14.7139 12.2C14.7139 12.4851 14.8271 12.7585 15.0287 12.9601C15.2303 13.1617 15.5038 13.275 15.7889 13.275C16.074 13.275 16.3474 13.1617 16.549 12.9601C16.7506 12.7585 16.8639 12.4851 16.8639 12.2Z" fill="#141313" stroke="#141313" stroke-width="0.15"/>
</g>
<defs>
<clipPath id="clip0_36_92">
<rect width="24" height="24" fill="white"/>
</clipPath>
</defs>
</svg>
