<svg width="24" height="24" viewBox="0 0 24 24" fill="none" xmlns="http://www.w3.org/2000/svg">
<path d="M16.775 7.71599C16.7753 8.19124 16.682 8.66191 16.5005 9.10111C16.3189 9.54031 16.0526 9.93945 15.7168 10.2757C15.381 10.612 14.9822 10.8789 14.5432 11.0611C14.1043 11.2432 13.6338 11.3372 13.1585 11.3375C12.6832 11.3378 12.2126 11.2445 11.7734 11.063C11.3342 10.8814 10.935 10.6151 10.5987 10.2793C10.2625 9.94345 9.99561 9.54468 9.81344 9.10573C9.63126 8.66678 9.53733 8.19624 9.537 7.72099C9.53634 6.76117 9.91699 5.8404 10.5952 5.16124C11.2734 4.48207 12.1937 4.10015 13.1535 4.09949C14.1133 4.09883 15.0341 4.47948 15.7133 5.1577C16.3924 5.83593 16.7743 6.75617 16.775 7.71599ZM13.15 13.371C9.124 13.371 5.852 16.555 5.75 20.516H20.55C20.448 16.555 17.176 13.371 13.15 13.371Z" stroke="#141313" stroke-width="1.5" stroke-linecap="round" stroke-linejoin="round"/>
</svg>
